<?xml version="1.0" encoding="UTF-8" standalone="no"?>
<!-- Created with Inkscape (http://www.inkscape.org/) -->

<svg
   xmlns:dc="http://purl.org/dc/elements/1.1/"
   xmlns:cc="http://creativecommons.org/ns#"
   xmlns:rdf="http://www.w3.org/1999/02/22-rdf-syntax-ns#"
   xmlns:svg="http://www.w3.org/2000/svg"
   xmlns="http://www.w3.org/2000/svg"
   xmlns:sodipodi="http://sodipodi.sourceforge.net/DTD/sodipodi-0.dtd"
   xmlns:inkscape="http://www.inkscape.org/namespaces/inkscape"
   width="1000"
   height="437.05301"
   viewBox="0 0 264.58333 115.63694"
   version="1.1"
   id="svg8"
   sodipodi:docname="AXA (1985).svg"
   inkscape:version="0.92.2 (5c3e80d, 2017-08-06)">
  <defs
     id="defs2" />
  <sodipodi:namedview
     id="base"
     pagecolor="#ffffff"
     bordercolor="#666666"
     borderopacity="1.0"
     inkscape:pageopacity="0.0"
     inkscape:pageshadow="2"
     inkscape:zoom="0.35355339"
     inkscape:cx="732.11378"
     inkscape:cy="271.9716"
     inkscape:document-units="px"
     inkscape:current-layer="layer1"
     showgrid="false"
     units="px"
     inkscape:window-width="1366"
     inkscape:window-height="705"
     inkscape:window-x="-8"
     inkscape:window-y="-8"
     inkscape:window-maximized="1" />
  <metadata
     id="metadata5">
    <rdf:RDF>
      <cc:Work
         rdf:about="">
        <dc:format>image/svg+xml</dc:format>
        <dc:type
           rdf:resource="http://purl.org/dc/dcmitype/StillImage" />
        <dc:title></dc:title>
      </cc:Work>
    </rdf:RDF>
  </metadata>
  <g
     inkscape:label="Layer 1"
     inkscape:groupmode="layer"
     id="layer1"
     transform="translate(0,-181.36305)">
    <path
       style="fill:#000000;fill-opacity:1;stroke-width:0.77744639"
       inkscape:connector-curvature="0"
       d="m 244.29108,239.23127 c 5.4022,15.18083 15.86506,54.63507 20.29225,57.76872 h -28.59944 c 0,0 -0.0995,-5.80969 -1.41274,-10.35599 -1.23363,-4.48659 -11.43946,-37.74597 -11.43946,-37.74597 h -46.6199 l -8.03187,11.98796 c 0,0 7.88217,23.37477 8.39949,24.67798 0.95507,2.44723 4.87707,11.43602 4.87707,11.43602 h -26.16694 c -1.11477,-4.71606 -2.71552,-9.35357 -4.27736,-13.95036 -4.18791,4.72203 -6.65031,8.55276 -10.37879,13.94041 h -21.19253 c -1.39789,-5.16568 -2.54261,-8.74794 -4.38537,-14.3535 -4.12692,5.19226 -6.86746,8.85711 -10.73508,14.3535 H 82.852514 c 0,0 6.14834,-5.80967 8.327108,-8.34647 3.611419,-4.28763 18.331888,-23.56147 18.331888,-23.56147 l -5.64622,-15.82429 H 58.372817 c 0,0 -25.501532,33.40695 -26.496417,34.47139 -1.114249,1.04456 -8.764851,12.07701 -8.953875,13.26084 H 0 c 4.6991741,-3.65857 12.411785,-12.26368 17.100093,-17.9736 21.008985,-30.42078 42.491664,-55.56214 62.575825,-83.42317 6.340654,-6.24422 7.433746,-14.23022 7.433746,-14.23022 H 109.5351 c 0,0 0.70636,9.27163 1.40276,11.52986 0.64669,1.99957 15.57145,48.89784 15.91965,49.40519 l 8.29503,-10.79921 -13.64584,-40.98356 c 0,0 -3.2035,-7.9784 -4.26802,-9.15228 h 27.18672 c 0,0 0.45841,3.75006 1.34108,7.42609 1.1441,3.49178 6.41618,19.68623 6.41618,19.68623 7.67587,-9.9609 16.63818,-22.70427 19.54123,-27.11245 h 24.63593 c 0,0 -4.25806,2.46785 -11.71965,11.9285 -2.51704,3.1834 -26.09459,34.38071 -26.09459,34.38071 0,0 2.9917,7.93801 4.06618,11.55914 0.25866,1.05448 0.45762,1.7608 0.45762,1.83045 0,0.0399 0.5273,-0.61678 1.48238,-1.83045 6.34731,-8.02815 35.78507,-45.80114 37.51616,-49.04423 1.41273,-2.64619 3.47213,-5.5809 4.70578,-8.82399 h 21.59391 c 0,0 0.52727,6.75478 1.19383,8.65485 l 14.72964,49.21337 m -35.58962,-32.8773 c -3.32289,7.17259 -20.2187,28.15194 -20.2187,28.15194 h 29.40431 c -2.79653,-9.36747 -5.8711,-18.16363 -9.18561,-28.15194 z m -118.103644,0.0667 c -4.690667,5.73615 -14.80679,20.37589 -21.557505,28.0852 h 31.147179 z m 46.584884,69.4296 8.54599,-11.74874 c -0.81578,-0.85552 -5.66276,-14.84318 -5.66276,-14.84318 l -7.7029,10.45769 z"
       id="path7"
       sodipodi:nodetypes="ccccccccccccccccccccccccccccccccccccccccsccccccccccccccccccc" />
  </g>
</svg>
