<svg xmlns="http://www.w3.org/2000/svg" xmlns:xlink="http://www.w3.org/1999/xlink" id="Calque_1" data-name="Calque 1" viewBox="0 0 157.2 74.33"><defs><style>.cls-1{fill:url(#Dégradé_sans_nom_8);}.cls-2{fill:#95c11f;}.cls-3{fill:#1d1d1b;}.cls-4{fill:#007335;}.cls-5{fill:url(#Dégradé_sans_nom_8-2);}.cls-6{fill:url(#Dégradé_sans_nom_8-3);}.cls-7{fill:#e6007e;}</style><linearGradient id="D&#xE9;grad&#xE9;_sans_nom_8" x1="7.38" y1="16.52" x2="49.63" y2="40.91" gradientUnits="userSpaceOnUse"><stop offset="0.01" stop-color="#aa026d"></stop><stop offset="0.06" stop-color="#c10173"></stop><stop offset="0.12" stop-color="#d50179"></stop><stop offset="0.17" stop-color="#e2007d"></stop><stop offset="0.23" stop-color="#e6007e"></stop><stop offset="0.26" stop-color="#e8218a"></stop><stop offset="0.3" stop-color="#ea3d95"></stop><stop offset="0.33" stop-color="#eb529d"></stop><stop offset="0.37" stop-color="#ec62a3"></stop><stop offset="0.42" stop-color="#ed6ba6"></stop><stop offset="0.49" stop-color="#ed6ea7"></stop><stop offset="0.51" stop-color="#dedc00"></stop><stop offset="0.7" stop-color="#b9cf0f"></stop><stop offset="1" stop-color="#76b82a"></stop></linearGradient><linearGradient id="D&#xE9;grad&#xE9;_sans_nom_8-2" x1="7.38" y1="4.29" x2="49.63" y2="28.68" xlink:href="#D&#xE9;grad&#xE9;_sans_nom_8"></linearGradient><linearGradient id="D&#xE9;grad&#xE9;_sans_nom_8-3" x1="7.38" y1="-7.94" x2="49.63" y2="16.46" xlink:href="#D&#xE9;grad&#xE9;_sans_nom_8"></linearGradient></defs><path class="cls-1" d="M41.1,33.83c-4.08,0-8.12-1-12.94-2.73-10.51-3.7-16.18-3.6-25.3.44A2,2,0,1,1,1.24,27.9c10-4.43,16.86-4.56,28.24-.56C38.7,30.58,44.43,31.15,54,26a2,2,0,1,1,1.89,3.51C50.2,32.55,45.63,33.83,41.1,33.83Z"></path><circle class="cls-2" cx="2.05" cy="29.7" r="2.02"></circle><circle class="cls-3" cx="28.5" cy="29.13" r="2.02"></circle><circle class="cls-4" cx="54.95" cy="27.76" r="2.02"></circle><path class="cls-5" d="M41.1,21.6c-4.08,0-8.12-1-12.94-2.73-10.51-3.69-16.18-3.59-25.3.45a2,2,0,0,1-1.62-3.64c10-4.43,16.86-4.57,28.24-.57,9.22,3.24,15,3.81,24.53-1.38a2,2,0,1,1,1.89,3.5C50.2,20.32,45.63,21.6,41.1,21.6Z"></path><circle class="cls-2" cx="2.05" cy="17.47" r="2.02"></circle><circle class="cls-3" cx="28.5" cy="16.9" r="2.02"></circle><circle class="cls-4" cx="54.95" cy="15.54" r="2.02"></circle><path class="cls-6" d="M41.1,9.38c-4.08,0-8.12-1-12.94-2.74C17.65,3,12,3.05,2.86,7.09A2,2,0,0,1,1.24,3.45C11.24-1,18.1-1.12,29.48,2.89,38.7,6.13,44.43,6.69,54,1.5A2,2,0,1,1,55.9,5C50.2,8.09,45.63,9.38,41.1,9.38Z"></path><circle class="cls-2" cx="2" cy="5.3" r="2"></circle><circle class="cls-3" cx="28.5" cy="4.67" r="2.02"></circle><circle class="cls-4" cx="54.95" cy="3.31" r="2.02"></circle><path class="cls-7" d="M14.84,73.86H2.17a2.09,2.09,0,0,1-2-2V47.06a2.09,2.09,0,0,1,2-2H14.84a2,2,0,1,1,0,4H4.17v8h7.25a1.89,1.89,0,0,1,2,2,1.92,1.92,0,0,1-2,2H4.17V69.9H14.84a2,2,0,1,1,0,4Zm-2-33.09L6.63,43.69a2,2,0,0,1-.87.25,2,2,0,0,1-1.92-2,1.81,1.81,0,0,1,1.08-1.71l6.25-3a2.78,2.78,0,0,1,.92-.2A2,2,0,0,1,14,39.06,1.93,1.93,0,0,1,12.88,40.77Z"></path><path class="cls-7" d="M37.77,72.11a2,2,0,0,1-2,2h-.46a2.32,2.32,0,0,1-2.25-1.67l-8-18V72.11a1.85,1.85,0,0,1-1.95,2,1.93,1.93,0,0,1-2.05-2V46.9a2,2,0,0,1,2.13-2.09h.46a2,2,0,0,1,2.12,1.46l8,18V46.81a1.89,1.89,0,0,1,2-2,2,2,0,0,1,2.05,2Z"></path><path class="cls-7" d="M58.77,73.86H46.1a2.09,2.09,0,0,1-2-2V47.06a2.09,2.09,0,0,1,2-2H58.77a2,2,0,1,1,0,4H48.1v8h7.25a1.9,1.9,0,0,1,2,2,1.93,1.93,0,0,1-2,2H48.1V69.9H58.77a2,2,0,1,1,0,4Z"></path><path class="cls-7" d="M82,53.56a8,8,0,0,1-5.3,7.71l4.75,10a1.83,1.83,0,0,1,.21.87,2,2,0,0,1-2.12,2A1.8,1.8,0,0,1,77.78,73L72.4,61.65H69V72.11a1.86,1.86,0,0,1-2,2,1.9,1.9,0,0,1-2-2v-25a2.08,2.08,0,0,1,2-2h6.8A8.12,8.12,0,0,1,82,53.19Zm-4-.37a4,4,0,0,0-4-4.17H69v8.67h5a4,4,0,0,0,4-4.13Z"></path><path class="cls-2" d="M103,66a8,8,0,0,1-8.12,8.09h-.42a8,8,0,0,1-8.13-8V52.77a8,8,0,0,1,8.13-8h.42c4.29,0,7.75,2.92,8.08,6.54v.21a1.81,1.81,0,0,1-2,1.88,1.89,1.89,0,0,1-2-1.79c-.21-1.88-2.13-2.88-4.17-2.88h-.42a4,4,0,0,0-4.13,4V66.11a4,4,0,0,0,4.13,4h.42A4.23,4.23,0,0,0,99,66V61.69H95.62a1.92,1.92,0,0,1-2-2,1.89,1.89,0,0,1,2-2H101a2,2,0,0,1,2,2Z"></path><path class="cls-2" d="M113.21,72.11a2,2,0,0,1-4,0V46.81a2,2,0,1,1,4,0Z"></path><path class="cls-2" d="M134.55,73.86H121.88a2.09,2.09,0,0,1-2-2V47.06a2.09,2.09,0,0,1,2-2h12.67a2,2,0,1,1,0,4H123.88v8h7.25a1.89,1.89,0,0,1,2,2,1.92,1.92,0,0,1-2,2h-7.25V69.9h10.67a2,2,0,1,1,0,4Z"></path><path class="cls-3" d="M9.29,59.06a2.11,2.11,0,1,1,2.11,2.11A2.1,2.1,0,0,1,9.29,59.06Z"></path><path class="cls-3" d="M53.23,59.06a2.11,2.11,0,1,1,2.11,2.11A2.11,2.11,0,0,1,53.23,59.06Z"></path><path class="cls-3" d="M93.44,59.78a2.11,2.11,0,1,1,2.11,2.12A2.1,2.1,0,0,1,93.44,59.78Z"></path><path class="cls-3" d="M109.09,46.78a2.11,2.11,0,1,1,2.11,2.11A2.11,2.11,0,0,1,109.09,46.78Z"></path><path class="cls-3" d="M129.05,59.05a2.11,2.11,0,1,1,2.1,2.11A2.1,2.1,0,0,1,129.05,59.05Z"></path><path class="cls-3" d="M77.51,72.14a2.11,2.11,0,1,1,2.11,2.11A2.11,2.11,0,0,1,77.51,72.14Z"></path><path class="cls-3" d="M21,72.14a2.11,2.11,0,1,1,2.11,2.11A2.12,2.12,0,0,1,21,72.14Z"></path><path class="cls-3" d="M33.62,46.84A2.11,2.11,0,1,1,35.73,49,2.11,2.11,0,0,1,33.62,46.84Z"></path><path class="cls-2" d="M148.85,74.33h-.42a7.83,7.83,0,0,1-8.18-8.14,2,2,0,1,1,4,0,3.9,3.9,0,0,0,4.15,4.19h.42c2.48,0,4.32-1.34,4.32-3.82,0-5.87-12.66-5.91-12.66-13.5V52.3c0-4.53,4.15-7.42,8-7.42h.37c4,0,7.93,2.14,7.93,6.41v.26a1.81,1.81,0,0,1-1.93,1.88,2.06,2.06,0,0,1-2.1-1.84c-.5-2.27-1.67-2.73-3.9-2.73h-.37c-1.85,0-3.95,1.18-3.95,3.23v.84c0,4,12.67,5,12.67,13.63C157.2,71.31,153.55,74.33,148.85,74.33Z"></path><path class="cls-3" d="M152.87,51.63a2.11,2.11,0,1,1,2.11,2.1A2.1,2.1,0,0,1,152.87,51.63Z"></path><path class="cls-3" d="M140,66a2.11,2.11,0,1,1,2.1,2.11A2.11,2.11,0,0,1,140,66Z"></path><path class="cls-3" d="M72.51,10.14a3.83,3.83,0,0,1-1.1,2.67,3.76,3.76,0,0,1-1.2.8,3.63,3.63,0,0,1-1.46.3H65.69a.79.79,0,0,1-.75-.76V1a.71.71,0,0,1,.23-.52.73.73,0,0,1,.52-.23h3.06A3.64,3.64,0,0,1,70.2.49a3.24,3.24,0,0,1,1.14.75,3.43,3.43,0,0,1,.75,1.14,4,4,0,0,1,.26,1.44v0a3.67,3.67,0,0,1-.45,1.89,3.09,3.09,0,0,1-1.09,1.12,2.9,2.9,0,0,1,.62.47A3,3,0,0,1,72,8a3.71,3.71,0,0,1,.38.88A3.78,3.78,0,0,1,72.51,10ZM70.85,3.82a2,2,0,0,0-.58-1.53,2.06,2.06,0,0,0-1.52-.57h-2.3V6.1h2.3a2.08,2.08,0,0,0,.82-.17,2,2,0,0,0,.67-.47,2.15,2.15,0,0,0,.45-.71,2.67,2.67,0,0,0,.16-.91ZM71,10a2.34,2.34,0,0,0-.18-.91,2.29,2.29,0,0,0-.5-.75,2.61,2.61,0,0,0-.72-.51,2.11,2.11,0,0,0-.86-.19h-2.3v4.8h2.3a2.16,2.16,0,0,0,.88-.18,2.29,2.29,0,0,0,1.2-1.2,2.13,2.13,0,0,0,.18-.88Z"></path><path class="cls-3" d="M84.22,10.26a3.66,3.66,0,0,1-.3,1.48,3.9,3.9,0,0,1-.8,1.18,3.72,3.72,0,0,1-1.19.8,3.77,3.77,0,0,1-1.46.29h-.2a3.8,3.8,0,0,1-1.46-.29,3.46,3.46,0,0,1-1.2-.8,3.76,3.76,0,0,1-.81-1.18,3.83,3.83,0,0,1-.29-1.48V3.84a3.77,3.77,0,0,1,.29-1.46,3.8,3.8,0,0,1,.81-1.19A3.83,3.83,0,0,1,80.27.09h.2a3.6,3.6,0,0,1,1.46.3,3.89,3.89,0,0,1,1.19.8,4,4,0,0,1,.8,1.19,3.6,3.6,0,0,1,.3,1.46ZM82.71,3.85A2.16,2.16,0,0,0,82.53,3a2.31,2.31,0,0,0-.47-.71,2.17,2.17,0,0,0-.71-.48,2.13,2.13,0,0,0-.88-.18h-.2a2.25,2.25,0,0,0-1.59.66,2.2,2.2,0,0,0-.49.71,2.11,2.11,0,0,0-.18.86v6.41a2.13,2.13,0,0,0,.18.88,2.29,2.29,0,0,0,1.2,1.2,2.16,2.16,0,0,0,.88.18h.2a2.13,2.13,0,0,0,.88-.18,2.34,2.34,0,0,0,.71-.48,2.49,2.49,0,0,0,.47-.72,2.13,2.13,0,0,0,.18-.88Z"></path><path class="cls-3" d="M96.66,4.15a3.88,3.88,0,0,1-.2,1.24,3.58,3.58,0,0,1-.56,1.06,3.58,3.58,0,0,1-.86.83,4,4,0,0,1-1.1.52l2.46,5.14a.67.67,0,0,1,.08.33.69.69,0,0,1-.22.53.79.79,0,0,1-.57.21.8.8,0,0,1-.36-.09.7.7,0,0,1-.3-.33L92.34,7.92h-2v5.35a.65.65,0,0,1-.23.56.84.84,0,0,1-.52.18.81.81,0,0,1-.51-.18.66.66,0,0,1-.24-.56V1A.68.68,0,0,1,89,.44a.71.71,0,0,1,.52-.23h3.33a3.83,3.83,0,0,1,2.67,1.1,4,4,0,0,1,.8,1.2A3.65,3.65,0,0,1,96.66,4ZM95.15,4A2.18,2.18,0,0,0,95,3.09a2.47,2.47,0,0,0-.48-.71,2.55,2.55,0,0,0-.72-.49,2.3,2.3,0,0,0-.88-.17H90.31V6.41H93a2.21,2.21,0,0,0,.87-.17,2.28,2.28,0,0,0,.69-.49A2.38,2.38,0,0,0,95,5a2.35,2.35,0,0,0,.17-.89Z"></path><path class="cls-3" d="M108.46,10.14a3.75,3.75,0,0,1-2.29,3.47,3.55,3.55,0,0,1-1.45.3h-3.21a.79.79,0,0,1-.76-.76V1A.71.71,0,0,1,101,.44a.74.74,0,0,1,.53-.23h3.21a3.55,3.55,0,0,1,1.45.3,3.52,3.52,0,0,1,1.19.8,3.8,3.8,0,0,1,.81,1.19A3.73,3.73,0,0,1,108.46,4ZM107,4a2.18,2.18,0,0,0-.18-.89,2.47,2.47,0,0,0-.48-.71,2.2,2.2,0,0,0-.7-.49,2.29,2.29,0,0,0-.87-.17h-2.47V12.4h2.45a2.12,2.12,0,0,0,.87-.18,2.29,2.29,0,0,0,1.2-1.2,2.13,2.13,0,0,0,.18-.88Z"></path><path class="cls-3" d="M120.76,13.15a.84.84,0,0,1-.18.52.65.65,0,0,1-.57.24h-6.2a.79.79,0,0,1-.76-.76V1a.71.71,0,0,1,.23-.52.74.74,0,0,1,.53-.23H120a.65.65,0,0,1,.57.24.83.83,0,0,1,0,1,.65.65,0,0,1-.57.24h-5.45V6.08h3.78a.7.7,0,0,1,.57.23.81.81,0,0,1,0,1,.7.7,0,0,1-.57.23h-3.78V12.4H120a.65.65,0,0,1,.57.24A.84.84,0,0,1,120.76,13.15Z"></path><path class="cls-3" d="M132.88,13.29a.69.69,0,0,1-.21.51.81.81,0,0,1-1,.09.66.66,0,0,1-.3-.4l-.87-2.85h-4.9l-.89,2.85a.75.75,0,0,1-.7.52.75.75,0,0,1-.55-.21.67.67,0,0,1-.22-.51.32.32,0,0,1,0-.08,1.57,1.57,0,0,0,0-.16L127.18.65a.72.72,0,0,1,.34-.42,1.15,1.15,0,0,1,.55-.14,1.13,1.13,0,0,1,.56.14.73.73,0,0,1,.35.42l3.86,12.4a.61.61,0,0,1,0,.16A.32.32,0,0,1,132.88,13.29Zm-4.81-10.5-2,6.34h3.94Z"></path><path class="cls-3" d="M144.29,10.26a3.83,3.83,0,0,1-.29,1.48,3.76,3.76,0,0,1-.81,1.18,3.52,3.52,0,0,1-1.19.8,3.72,3.72,0,0,1-1.45.29h-.2a3.82,3.82,0,0,1-1.47-.29,3.66,3.66,0,0,1-1.2-.8,3.9,3.9,0,0,1-.8-1.18,3.66,3.66,0,0,1-.3-1.48V.84a.66.66,0,0,1,.24-.56.79.79,0,0,1,1,0,.66.66,0,0,1,.24.56v9.4a2.13,2.13,0,0,0,.18.88,2.21,2.21,0,0,0,1.2,1.2,2.13,2.13,0,0,0,.88.18h.2a2.16,2.16,0,0,0,.88-.18,2.29,2.29,0,0,0,.7-.48,2.52,2.52,0,0,0,.48-.72,2.13,2.13,0,0,0,.18-.88V.84A.68.68,0,0,1,143,.28a.8.8,0,0,1,.52-.19.77.77,0,0,1,.51.19.66.66,0,0,1,.24.56Z"></path><path class="cls-3" d="M156.22,12.94a.72.72,0,0,1,.08.35.69.69,0,0,1-.21.51.77.77,0,0,1-.57.21.7.7,0,0,1-.65-.4l-2.52-5.08-2.54,5.08a.59.59,0,0,1-.27.31.8.8,0,0,1-.36.09.77.77,0,0,1-.57-.21.67.67,0,0,1-.22-.51.63.63,0,0,1,.08-.35l3-6.11-2.8-5.65a.81.81,0,0,1-.07-.38.68.68,0,0,1,.2-.5.77.77,0,0,1,.57-.21.7.7,0,0,1,.36.1.61.61,0,0,1,.29.32l2.3,4.64,2.3-4.64a.68.68,0,0,1,.28-.32.71.71,0,0,1,.37-.1.77.77,0,0,1,.57.21.69.69,0,0,1,.21.5.8.8,0,0,1-.08.38l-2.82,5.65Z"></path><path class="cls-3" d="M75,33.09a.66.66,0,0,1-.24.56.83.83,0,0,1-1,0,.66.66,0,0,1-.24-.56V23.4l-2.61,6a.79.79,0,0,1-.35.39,1,1,0,0,1-.49.12.86.86,0,0,1-.85-.51l-2.69-6v9.69a.66.66,0,0,1-.24.56.83.83,0,0,1-1,0,.66.66,0,0,1-.24-.56V20.78a1,1,0,0,1,.19-.63.84.84,0,0,1,.7-.24h.06a.88.88,0,0,1,.6.18,1.11,1.11,0,0,1,.29.4L70,27.58l3.15-7.09a1.11,1.11,0,0,1,.29-.4.92.92,0,0,1,.62-.18h.06a.82.82,0,0,1,.69.24,1,1,0,0,1,.18.63Z"></path><path class="cls-3" d="M86.37,33a.84.84,0,0,1-.18.52.67.67,0,0,1-.57.24H79.41a.71.71,0,0,1-.52-.23.7.7,0,0,1-.23-.53V20.78a.69.69,0,0,1,.23-.52.71.71,0,0,1,.52-.23h6.21a.67.67,0,0,1,.57.24.83.83,0,0,1,0,1,.67.67,0,0,1-.57.24H80.17V25.9H84a.69.69,0,0,1,.57.24.81.81,0,0,1,.18.51.84.84,0,0,1-.18.52.69.69,0,0,1-.57.23H80.17v4.82h5.45a.67.67,0,0,1,.57.24A.84.84,0,0,1,86.37,33ZM84.86,16.74a.67.67,0,0,1-.11.38.73.73,0,0,1-.32.28L81.3,18.84a.74.74,0,0,1-.34.08.67.67,0,0,1-.55-.25.79.79,0,0,1-.2-.54.75.75,0,0,1,.1-.38.77.77,0,0,1,.35-.28L83.77,16a.63.63,0,0,1,.34-.08.68.68,0,0,1,.55.25A.84.84,0,0,1,84.86,16.74Z"></path><path class="cls-3" d="M94.78,20.78a.85.85,0,0,1-.19.52.69.69,0,0,1-.57.24H91.84V33.09a.66.66,0,0,1-.24.56.81.81,0,0,1-.51.18.84.84,0,0,1-.52-.18.68.68,0,0,1-.23-.56V21.54H88.16a.68.68,0,0,1-.57-.24.79.79,0,0,1,0-1,.68.68,0,0,1,.57-.24H94a.69.69,0,0,1,.57.24A.85.85,0,0,1,94.78,20.78Z"></path><path class="cls-3" d="M104.85,24a3.87,3.87,0,0,1-.2,1.23,3.81,3.81,0,0,1-.55,1.06,3.62,3.62,0,0,1-.87.83,3.84,3.84,0,0,1-1.1.52l2.46,5.14a.67.67,0,0,1,.08.33.68.68,0,0,1-.22.53.79.79,0,0,1-.57.21.8.8,0,0,1-.36-.09.7.7,0,0,1-.3-.33l-2.69-5.67h-2v5.35a.66.66,0,0,1-.24.56.84.84,0,0,1-.52.18.81.81,0,0,1-.51-.18.66.66,0,0,1-.24-.56V20.78a.69.69,0,0,1,.23-.52.71.71,0,0,1,.52-.23h3.33a3.65,3.65,0,0,1,1.47.3,3.82,3.82,0,0,1,1.2.8,4,4,0,0,1,.8,1.2,3.65,3.65,0,0,1,.3,1.47Zm-1.51-.18a2.13,2.13,0,0,0-.18-.88,2.39,2.39,0,0,0-.48-.72,2.33,2.33,0,0,0-.72-.48,2.13,2.13,0,0,0-.88-.18H98.51v4.7h2.65a2.05,2.05,0,0,0,.87-.18,2,2,0,0,0,.69-.49,2.26,2.26,0,0,0,.45-.71,2.16,2.16,0,0,0,.17-.88Z"></path><path class="cls-3" d="M115.18,30.08a3.66,3.66,0,0,1-.3,1.48,4.08,4.08,0,0,1-.8,1.19,3.86,3.86,0,0,1-1.19.79,3.77,3.77,0,0,1-1.46.29h-.2a3.8,3.8,0,0,1-1.46-.29,3.58,3.58,0,0,1-1.2-.79,3.92,3.92,0,0,1-.81-1.19,3.83,3.83,0,0,1-.29-1.48V23.66a3.77,3.77,0,0,1,.29-1.46,3.92,3.92,0,0,1,.81-1.19,3.76,3.76,0,0,1,1.2-.8,3.63,3.63,0,0,1,1.46-.3h.2a3.6,3.6,0,0,1,1.46.3,3.73,3.73,0,0,1,2,2,3.6,3.6,0,0,1,.3,1.46Zm-1.51-6.41a2.16,2.16,0,0,0-.18-.88,2.44,2.44,0,0,0-.47-.71,2.34,2.34,0,0,0-.71-.48,2.13,2.13,0,0,0-.88-.18h-.2a2.16,2.16,0,0,0-.88.18,2.34,2.34,0,0,0-.71.48,2.31,2.31,0,0,0-.49.71,2.11,2.11,0,0,0-.18.86v6.41a2.18,2.18,0,0,0,.18.89,2.31,2.31,0,0,0,.49.71,2.34,2.34,0,0,0,.71.48,2.16,2.16,0,0,0,.88.18h.2a2.13,2.13,0,0,0,.88-.18,2.34,2.34,0,0,0,.71-.48,2.44,2.44,0,0,0,.47-.71,2.18,2.18,0,0,0,.18-.89Z"></path><path class="cls-3" d="M126.3,23.76a3.83,3.83,0,0,1-1.1,2.66,3.72,3.72,0,0,1-2.67,1.1H120.1v5.57a.66.66,0,0,1-.24.56.83.83,0,0,1-1,0,.66.66,0,0,1-.24-.56V20.78a.69.69,0,0,1,.23-.52.71.71,0,0,1,.52-.23h3.19a3.82,3.82,0,0,1,1.47.29,3.63,3.63,0,0,1,1.2.79,3.78,3.78,0,0,1,.8,1.19A3.6,3.6,0,0,1,126.3,23.76Zm-1.51,0a2.25,2.25,0,0,0-.66-1.57,2.25,2.25,0,0,0-.71-.47,2.21,2.21,0,0,0-.89-.18H120.1V26h2.43a2.21,2.21,0,0,0,.89-.18,2.31,2.31,0,0,0,.71-.49,2.25,2.25,0,0,0,.66-1.59Z"></path><path class="cls-3" d="M136.13,30.08a3.83,3.83,0,0,1-.29,1.48,3.92,3.92,0,0,1-.81,1.19,3.64,3.64,0,0,1-1.19.79,3.72,3.72,0,0,1-1.45.29h-.2a3.81,3.81,0,0,1-2.67-1.08,4.08,4.08,0,0,1-.8-1.19,3.66,3.66,0,0,1-.3-1.48V23.66a3.6,3.6,0,0,1,.3-1.46,4.08,4.08,0,0,1,.8-1.19,4,4,0,0,1,1.2-.8,3.65,3.65,0,0,1,1.47-.3h.2a3.55,3.55,0,0,1,1.45.3A3.83,3.83,0,0,1,135,21a3.92,3.92,0,0,1,.81,1.19,3.77,3.77,0,0,1,.29,1.46Zm-1.5-6.41a2.16,2.16,0,0,0-.18-.88,2.47,2.47,0,0,0-.48-.71,2.29,2.29,0,0,0-.7-.48,2.16,2.16,0,0,0-.88-.18h-.2a2.13,2.13,0,0,0-.88.18,2.52,2.52,0,0,0-.72.48,2.47,2.47,0,0,0-.48.71,2.11,2.11,0,0,0-.18.86v6.41a2.18,2.18,0,0,0,.18.89,2.47,2.47,0,0,0,.48.71,2.52,2.52,0,0,0,.72.48,2.13,2.13,0,0,0,.88.18h.2a2.16,2.16,0,0,0,.88-.18,2.29,2.29,0,0,0,.7-.48,2.47,2.47,0,0,0,.48-.71,2.18,2.18,0,0,0,.18-.89Z"></path><path class="cls-3" d="M146.46,33a.8.8,0,0,1-.19.52.66.66,0,0,1-.56.24H140.3a.74.74,0,0,1-.53-.23.73.73,0,0,1-.22-.53V20.67a.67.67,0,0,1,.23-.57.85.85,0,0,1,.52-.19.83.83,0,0,1,.51.19.68.68,0,0,1,.24.57V32.22h4.66a.66.66,0,0,1,.56.24A.79.79,0,0,1,146.46,33Z"></path><path class="cls-3" d="M156.69,33a.84.84,0,0,1-.18.52.65.65,0,0,1-.57.24h-6.2A.79.79,0,0,1,149,33V20.78a.79.79,0,0,1,.76-.75h6.2a.65.65,0,0,1,.57.24.83.83,0,0,1,0,1,.65.65,0,0,1-.57.24h-5.45V25.9h3.79a.67.67,0,0,1,.56.24.77.77,0,0,1,.19.51.8.8,0,0,1-.19.52.67.67,0,0,1-.56.23h-3.79v4.82h5.45a.65.65,0,0,1,.57.24A.84.84,0,0,1,156.69,33Z"></path></svg>